<svg width="64" height="64" viewBox="0 0 64 64" fill="none" xmlns="http://www.w3.org/2000/svg">
  <defs>
    <linearGradient id="bg" x1="0" y1="0" x2="64" y2="64" gradientUnits="userSpaceOnUse">
      <stop offset="0%" stop-color="#06081a"/>
      <stop offset="100%" stop-color="#0d1030"/>
    </linearGradient>
    <linearGradient id="shield" x1="10" y1="4" x2="54" y2="60" gradientUnits="userSpaceOnUse">
      <stop offset="0%" stop-color="#818cf8"/>
      <stop offset="100%" stop-color="#7c3aed"/>
    </linearGradient>
    <filter id="glow" x="-20%" y="-20%" width="140%" height="140%">
      <feGaussianBlur stdDeviation="2.5" result="blur"/>
      <feComposite in="SourceGraphic" in2="blur" operator="over"/>
    </filter>
  </defs>
  <rect width="64" height="64" rx="14" fill="url(#bg)"/>
  <path filter="url(#glow)"
    d="M32 7 L10 16 L10 31 C10 44.5 19.5 55.5 32 59 C44.5 55.5 54 44.5 54 31 L54 16 Z"
    fill="url(#shield)" opacity="0.25"/>
  <path
    d="M32 7 L10 16 L10 31 C10 44.5 19.5 55.5 32 59 C44.5 55.5 54 44.5 54 31 L54 16 Z"
    fill="url(#shield)"/>
  <path d="M22 32 L28.5 38.5 L42 25" stroke="white" stroke-width="3.8" stroke-linecap="round" stroke-linejoin="round"/>
</svg>
